<svg id="e502C9eiPoI1" xmlns="http://www.w3.org/2000/svg" xmlns:xlink="http://www.w3.org/1999/xlink" viewBox="0 0 300 300" shape-rendering="geometricPrecision" text-rendering="geometricPrecision" project-id="fa4184d71f6d4a2ab09f69f3ae7de563" export-id="abcfc009a1e04cdd97cc135d0b903bdb" cached="false"><g transform="matrix(1.061851 0 0 1.120588-14.918994-28.570921)"><path d="M156.623163,162.911725l-.007515,30.862721l8.247795-.063628.263124-28.935019l29.206763.197343-.102715-8.316952h-33.932302c-.630957.081877-3.429702-.135834-3.67515,3.017942v3.237593Z" transform="matrix(1.979886 0 0 1.816426-170.694898-143.678396)" fill="#b3c7ff" stroke-width="0.6"/><path d="M94.600694,202.280386q1.053849,1.844237,4.362501,3.611214l57.659969,29.891765v-42.026017h-50.846156v-87.852269l88.453608.000001v50.751109h41.470547L208.20005,102.497237l-2.31423-4.65601c-.41862-.951685-1.184665-2.011176-2.424431-3.030539-.941776-.631674-1.735672-.858864-4.295483-.858864h-10.752974-64.605265-24.221115q-5.398729.531564-5.700184,5.907287t0,18.240629v31.90026v15.218933v31.56791c-.102072,2.457725.210482,4.303795.714326,5.493543Z" transform="matrix(1.979886 0 0 1.816426-170.791941-144.760515)" fill="#b3c7ff" stroke-width="0.6"/><path d="M164.797659,193.653655l29.319473.134611.150414-28.815126l33.548309-.065781.025459,63.028743-62.977874.186796-.065781-34.469243Z" transform="matrix(1.979886 0 0 1.816426-170.517602-143.531719)" fill="#b3c7ff" stroke-width="0.6"/></g></svg>
