<svg id="e9Z3YrTs8x61" xmlns="http://www.w3.org/2000/svg" xmlns:xlink="http://www.w3.org/1999/xlink" viewBox="0 0 300 300" shape-rendering="geometricPrecision" text-rendering="geometricPrecision" project-id="fa4184d71f6d4a2ab09f69f3ae7de563" export-id="b1ae9027d7c348f1bc7142569d6a1524" cached="true"><path d="M94.600694,202.280386q1.053849,1.844237,4.362501,3.611214l57.659969,29.891765v-42.026017h-50.846156v-87.852269l88.453608.000001v50.751109h41.470547L208.20005,102.497237l-2.31423-4.65601c-.41862-.951685-1.184665-2.011176-2.424431-3.030539-.941776-.631674-1.735672-.858864-4.295483-.858864h-10.752974-64.605265-24.221115q-5.398729.531564-5.700184,5.907287t0,18.240629v31.90026v15.218933v31.56791c-.102072,2.457725.210482,4.303795.714326,5.493543Z" transform="translate(0 0.000001)" fill="#b3c7ff" stroke-width="0.6"/><path d="M156.623163,162.911725l-.007515,30.862721l5.980973-.063628.25451-30.732021h31.368295l.011189-6.322607h-33.932302c-.630957.081877-3.429702-.135834-3.67515,3.017942v3.237593Z" transform="translate(.000001 0)" fill="#b3c7ff" stroke-width="0.6"/><path d="M162.600404,193.725523l31.516728.062743.100888-30.771101l42.266337-.406921-.057076,66.458539c.33247,4.953053-3.220126,7.218481-5.361571,7.34747l-68.413977.054325-.014179-38.319754-.03715-4.425301Z" transform="translate(.000004 0.000002)" fill="#b3c7ff" stroke-width="0.6"/></svg>
